<?xml version="1.0" encoding="utf-8"?>
<!-- Generator: Adobe Illustrator 25.2.3, SVG Export Plug-In . SVG Version: 6.00 Build 0)  -->
<svg version="1.1" id="Layer_1" xmlns="http://www.w3.org/2000/svg" xmlns:xlink="http://www.w3.org/1999/xlink" x="0px" y="0px"
	 viewBox="0 0 384.6 97.4" style="enable-background:new 0 0 384.6 97.4;" xml:space="preserve">
<style type="text/css">
	.st0{fill-rule:evenodd;clip-rule:evenodd;fill:#FFB81C;}
	.st1{fill-rule:evenodd;clip-rule:evenodd;fill:#FFFFFF;}
</style>
<g id="pitt">
	<g>
		<path class="st0" d="M22.3,13H0v47h12.3V44.4h10.1c10.3,0,17-4.5,17-16.2C39.3,17,31.1,13,22.3,13z M20.5,34.9h-8.2V22.8h8.2
			c3.8,0,6.6,1.8,6.6,6.2C27.1,33.3,24.3,34.9,20.5,34.9z M43.5,60.1h12.3V13H43.5V60.1z M59.2,23.5h14v36.5h12.3V23.5h14V13H59.2
			V23.5z M103.3,13v10.5h14v36.5h12.3V23.5h14V13H103.3z"/>
	</g>
</g>
<g id="engineering_2_">
	<g>
		<path class="st0" d="M180.4,55.3h7.8v-1.6h-7.8v-7.5h8.4v-1.6h-10.2v20.6h10.5v-1.6h-8.6V55.3z M208.2,62.7L208.2,62.7l-7.9-17.9
			h-2.5v20.6h1.8V47.4h0.1l7.9,17.9h2.5V44.7h-1.8V62.7z M224.8,56.4h4.9v0.4c0,4.8-1.5,7.3-4.3,7.3c-2.9,0-4.7-2.4-4.7-9.1
			c0-6.7,1.8-9.1,4.7-9.1c2.7,0,4.1,2.1,4.1,4.6h1.9c-0.2-3.5-2-6.1-5.9-6.1c-4.2,0-6.6,3.3-6.6,10.6c0,7.4,2.4,10.6,6.6,10.6
			c2,0,3.9-1.5,4.5-3.8h0.1v3.4h1.4V54.8h-6.6V56.4z M241.9,65.3h1.9V44.7h-1.9V65.3z M264.7,62.7L264.7,62.7l-7.9-17.9h-2.5v20.6
			h1.8V47.4h0.1l7.9,17.9h2.5V44.7h-1.8V62.7z M278.5,55.3h7.8v-1.6h-7.8v-7.5h8.4v-1.6h-10.2v20.6h10.5v-1.6h-8.6V55.3z
			 M298.6,55.3h7.8v-1.6h-7.8v-7.5h8.4v-1.6h-10.2v20.6h10.5v-1.6h-8.6V55.3z M327.7,60c-0.1-3.2-1-4.6-3.5-4.9v-0.1
			c2.7-0.5,3.7-2.7,3.7-5.2c0-3.2-1.9-5.2-5.3-5.2h-6.2v20.6h1.8v-9.4h3.5c3.3,0,4,1.2,4.1,4.8l0.1,1.7c0,1.1,0.1,2.2,0.5,2.9h2.2
			c-0.7-0.8-0.8-1.9-0.9-3L327.7,60z M321.4,54.4h-3.2v-8.1h3.4c3.4,0,4.4,1.5,4.4,4C326,53,324.3,54.4,321.4,54.4z M338.2,65.3h1.9
			V44.7h-1.9V65.3z M361,62.7L361,62.7l-7.9-17.9h-2.5v20.6h1.8V47.4h0.1l7.9,17.9h2.5V44.7H361V62.7z M376.9,54.8v1.6h4.9v0.4
			c0,4.8-1.5,7.3-4.3,7.3c-2.9,0-4.7-2.4-4.7-9.1c0-6.7,1.8-9.1,4.7-9.1c2.7,0,4.1,2.1,4.1,4.6h1.9c-0.2-3.5-2-6.1-5.9-6.1
			c-4.2,0-6.6,3.3-6.6,10.6c0,7.4,2.4,10.6,6.6,10.6c2,0,3.9-1.5,4.5-3.8h0.1v3.4h1.4V54.8H376.9z"/>
	</g>
</g>
<g id="swanson">
	<g>
		<path class="st1" d="M192.6,20.6c-4.9-1.1-9.8-1.7-9.8-5.4c0-4,3.4-5.2,6.8-5.2c4.2,0,7.1,1.9,7.5,6.2h3.8
			c-0.3-6.7-5-9.6-11.2-9.6c-5.5,0-11,2.7-11,8.9c0,5.6,4.9,7,9.8,8c4.9,1.1,9.7,1.8,9.7,6c0,4.4-4,5.5-7.7,5.5
			c-4.6,0-8.9-2.2-8.9-7.3h-3.8c0,7.4,5.7,10.7,12.6,10.7c5.5,0,11.9-2.6,11.9-9.1C202.3,23.5,197.4,21.8,192.6,20.6z M237.9,7.4
			l-6.2,25.3h-0.1l-6.7-25.3h-4.4l-6.8,25.3h-0.1l-6-25.3h-4.1l7.8,30.4h4.2l7-25.5h0.1l6.9,25.5h4.2l8.1-30.4H237.9z M251.7,7.4
			l-11.9,30.4h4.2l3.4-9.2h12.9l3.3,9.2h4.5L256.2,7.4H251.7z M248.7,25.2l5.2-14.2h0.1l5.1,14.2H248.7z M291.4,32L291.4,32
			L275.3,7.4H271v30.4h3.8V13.4h0.1l15.9,24.4h4.4V7.4h-3.8V32z M314.3,20.6c-4.9-1.1-9.7-1.7-9.7-5.4c0-4,3.4-5.2,6.8-5.2
			c4.2,0,7.1,1.9,7.5,6.2h3.8c-0.3-6.7-5-9.6-11.2-9.6c-5.5,0-11,2.7-11,8.9c0,5.6,4.9,7,9.8,8c4.9,1.1,9.7,1.8,9.7,6
			c0,4.4-4,5.5-7.7,5.5c-4.6,0-8.9-2.2-8.9-7.3h-3.8c0,7.4,5.7,10.7,12.6,10.7c5.5,0,11.9-2.6,11.9-9.1
			C324.1,23.5,319.2,21.8,314.3,20.6z M341,6.6c-9.7,0-14.6,7.7-14.6,15.9c0,8.3,4.9,15.9,14.6,15.9c9.7,0,14.6-7.7,14.6-15.9
			C355.5,14.3,350.6,6.6,341,6.6z M341,35.1c-7.4,0-10.5-6.4-10.5-12.5c0-6.1,3.1-12.5,10.5-12.5c7.4,0,10.5,6.4,10.5,12.5
			C351.5,28.7,348.4,35.1,341,35.1z M379.8,7.4V32h-0.1l-16-24.7h-4.3v30.4h3.8V13.4h0.1l15.9,24.4h4.4V7.4H379.8z"/>
	</g>
</g>
<g id="Shape_4_2_">
	<g>
		<rect x="159.6" y="0" class="st1" width="2.3" height="72.4"/>
	</g>
</g>
<g id="electrical__x26__computer">
	<g>
		<path class="st1" d="M2.4,92h5.9v-1.7H2.4v-3.1h6.4v-1.8H0.4v11.7h8.5v-1.8H2.4V92z M20.9,85.5h-2v11.7h8v-1.8h-5.9V85.5z
			 M38.5,92h5.9v-1.7h-5.9v-3.1h6.4v-1.8h-8.4v11.7H45v-1.8h-6.5V92z M62.6,93.9c-0.1,0.4-0.3,0.7-0.6,1c-0.3,0.3-0.6,0.5-0.9,0.7
			c-0.3,0.2-0.8,0.2-1.2,0.2c-0.6,0-1.2-0.1-1.6-0.4c-0.5-0.3-0.8-0.6-1.1-1c-0.3-0.4-0.5-0.9-0.6-1.4c-0.1-0.5-0.2-1.1-0.2-1.6
			c0-0.6,0.1-1.1,0.2-1.6c0.1-0.5,0.3-1,0.6-1.4c0.3-0.4,0.7-0.8,1.1-1c0.5-0.3,1-0.4,1.6-0.4c0.4,0,0.8,0.1,1.1,0.2
			c0.3,0.1,0.6,0.3,0.8,0.5c0.2,0.2,0.4,0.5,0.6,0.7c0.2,0.3,0.3,0.6,0.4,0.9h2c-0.1-0.6-0.2-1.2-0.5-1.7c-0.3-0.5-0.6-0.9-1.1-1.3
			c-0.4-0.3-1-0.6-1.5-0.8c-0.6-0.2-1.2-0.3-1.9-0.3c-0.9,0-1.7,0.2-2.3,0.5c-0.7,0.3-1.3,0.8-1.8,1.3c-0.5,0.6-0.8,1.2-1.1,1.9
			c-0.3,0.7-0.4,1.5-0.4,2.4c0,0.8,0.1,1.6,0.4,2.4c0.3,0.7,0.6,1.4,1.1,1.9c0.5,0.6,1.1,1,1.8,1.3c0.7,0.3,1.5,0.5,2.3,0.5
			c0.7,0,1.4-0.1,1.9-0.3c0.6-0.2,1.1-0.6,1.5-1c0.4-0.4,0.8-0.9,1-1.5c0.3-0.6,0.4-1.2,0.5-1.9h-2C62.8,93.1,62.7,93.5,62.6,93.9z
			 M73.8,87.3h3.7v9.9h2v-9.9h3.7v-1.8h-9.5V87.3z M102.1,94.1c0-0.5-0.1-0.8-0.2-1.1c-0.1-0.3-0.3-0.6-0.4-0.7
			c-0.2-0.2-0.4-0.3-0.6-0.4c-0.2-0.1-0.4-0.1-0.6-0.2v0c0.1,0,0.3-0.1,0.5-0.2c0.2-0.1,0.4-0.3,0.6-0.5c0.2-0.2,0.4-0.5,0.6-0.9
			c0.2-0.4,0.2-0.8,0.2-1.4c0-1-0.3-1.8-1-2.3c-0.6-0.6-1.6-0.8-2.9-0.8h-5.6v11.7h2v-4.8h3c0.5,0,0.9,0.1,1.2,0.2
			c0.3,0.1,0.5,0.3,0.7,0.6c0.2,0.3,0.3,0.6,0.4,1c0.1,0.4,0.1,0.8,0.1,1.4c0,0.3,0,0.6,0,0.9c0,0.3,0.1,0.6,0.3,0.8h2.2
			c-0.2-0.2-0.4-0.6-0.5-1.2C102.1,95.4,102.1,94.8,102.1,94.1z M99.7,90.3c-0.3,0.3-0.8,0.5-1.5,0.5h-3.4v-3.6h3.3
			c0.3,0,0.5,0,0.8,0.1c0.2,0,0.5,0.1,0.7,0.3c0.2,0.1,0.3,0.3,0.5,0.5c0.1,0.2,0.2,0.5,0.2,0.9C100.2,89.6,100,90,99.7,90.3z
			 M112.5,97.2h2V85.5h-2V97.2z M132.9,93.9c-0.1,0.4-0.3,0.7-0.6,1c-0.3,0.3-0.6,0.5-0.9,0.7c-0.3,0.2-0.8,0.2-1.2,0.2
			c-0.6,0-1.2-0.1-1.6-0.4c-0.5-0.3-0.8-0.6-1.1-1c-0.3-0.4-0.5-0.9-0.6-1.4c-0.1-0.5-0.2-1.1-0.2-1.6c0-0.6,0.1-1.1,0.2-1.6
			c0.1-0.5,0.3-1,0.6-1.4c0.3-0.4,0.7-0.8,1.1-1c0.5-0.3,1-0.4,1.6-0.4c0.4,0,0.8,0.1,1.1,0.2c0.3,0.1,0.6,0.3,0.8,0.5
			c0.2,0.2,0.4,0.5,0.6,0.7c0.2,0.3,0.3,0.6,0.4,0.9h2c-0.1-0.6-0.2-1.2-0.5-1.7c-0.3-0.5-0.6-0.9-1.1-1.3c-0.4-0.3-1-0.6-1.5-0.8
			c-0.6-0.2-1.2-0.3-1.8-0.3c-0.9,0-1.7,0.2-2.3,0.5c-0.7,0.3-1.3,0.8-1.8,1.3c-0.5,0.6-0.8,1.2-1.1,1.9c-0.3,0.7-0.4,1.5-0.4,2.4
			c0,0.8,0.1,1.6,0.4,2.4c0.3,0.7,0.6,1.4,1.1,1.9c0.5,0.6,1.1,1,1.8,1.3c0.7,0.3,1.5,0.5,2.3,0.5c0.7,0,1.4-0.1,1.9-0.3
			c0.6-0.2,1.1-0.6,1.5-1c0.4-0.4,0.8-0.9,1-1.5c0.3-0.6,0.4-1.2,0.4-1.9h-2C133.2,93.1,133.1,93.5,132.9,93.9z M148.4,85.5
			l-4.5,11.7h2.1l1.1-3.1h4.7l1.1,3.1h2.2l-4.5-11.7H148.4z M147.7,92.5l1.8-5h0l1.8,5H147.7z M166.4,85.5h-2v11.7h8v-1.8h-5.9V85.5
			z M207.5,93.1c0.1-0.5,0.2-1,0.3-1.5h-1.6c0,0.4-0.1,0.7-0.2,0.9c-0.1,0.2-0.1,0.5-0.2,0.6l-1.8-2.2c0.3-0.2,0.6-0.3,0.8-0.5
			c0.3-0.2,0.5-0.4,0.7-0.7c0.2-0.2,0.3-0.5,0.5-0.8c0.1-0.3,0.2-0.6,0.2-1c0-0.5-0.1-0.9-0.2-1.2c-0.2-0.3-0.4-0.6-0.6-0.9
			c-0.3-0.2-0.6-0.4-0.9-0.5c-0.4-0.1-0.7-0.2-1.1-0.2c-0.4,0-0.8,0.1-1.1,0.2c-0.3,0.1-0.7,0.3-0.9,0.6c-0.3,0.2-0.5,0.5-0.6,0.9
			c-0.1,0.3-0.2,0.7-0.2,1.1c0,0.3,0,0.5,0.1,0.7c0.1,0.2,0.2,0.4,0.3,0.7c0.1,0.2,0.2,0.4,0.4,0.6c0.1,0.2,0.3,0.4,0.4,0.6
			c-0.3,0.2-0.7,0.4-1,0.6c-0.3,0.2-0.6,0.5-0.9,0.7c-0.3,0.3-0.5,0.6-0.6,0.9c-0.2,0.3-0.2,0.7-0.2,1.1c0,0.5,0.1,1,0.3,1.5
			c0.2,0.4,0.4,0.8,0.8,1.1c0.3,0.3,0.7,0.5,1.2,0.7c0.5,0.2,0.9,0.2,1.5,0.2c0.7,0,1.3-0.1,1.8-0.4c0.5-0.2,1-0.6,1.4-1.2l1.1,1.3
			h2.3l-2.2-2.7C207.1,94,207.3,93.6,207.5,93.1z M202.3,86.9c0.2-0.2,0.5-0.3,0.9-0.3c0.4,0,0.6,0.1,0.9,0.4c0.2,0.3,0.3,0.6,0.3,1
			c0,0.2,0,0.4-0.1,0.6c-0.1,0.2-0.2,0.4-0.3,0.5c-0.1,0.1-0.3,0.3-0.4,0.4c-0.2,0.1-0.3,0.2-0.5,0.4c-0.1-0.1-0.2-0.3-0.4-0.4
			c-0.1-0.2-0.2-0.3-0.3-0.5c-0.1-0.2-0.2-0.3-0.3-0.5c-0.1-0.2-0.1-0.4-0.1-0.5C201.9,87.5,202.1,87.2,202.3,86.9z M204.4,95
			c-0.1,0.1-0.3,0.3-0.4,0.4c-0.2,0.1-0.4,0.2-0.6,0.3c-0.2,0.1-0.5,0.1-0.9,0.1c-0.5,0-1-0.2-1.4-0.5c-0.4-0.3-0.5-0.8-0.5-1.5
			c0-0.3,0.1-0.6,0.2-0.9c0.1-0.2,0.3-0.4,0.5-0.6c0.2-0.2,0.4-0.3,0.6-0.4c0.2-0.1,0.4-0.2,0.6-0.3l2.3,2.8
			C204.6,94.7,204.5,94.9,204.4,95z M243.5,93.9c-0.1,0.4-0.3,0.7-0.6,1c-0.3,0.3-0.6,0.5-0.9,0.7c-0.3,0.2-0.8,0.2-1.2,0.2
			c-0.6,0-1.2-0.1-1.6-0.4c-0.5-0.3-0.8-0.6-1.1-1c-0.3-0.4-0.5-0.9-0.6-1.4c-0.1-0.5-0.2-1.1-0.2-1.6c0-0.6,0.1-1.1,0.2-1.6
			c0.1-0.5,0.3-1,0.6-1.4c0.3-0.4,0.7-0.8,1.1-1c0.5-0.3,1-0.4,1.6-0.4c0.4,0,0.8,0.1,1.1,0.2c0.3,0.1,0.6,0.3,0.8,0.5
			c0.2,0.2,0.4,0.5,0.6,0.7c0.2,0.3,0.3,0.6,0.4,0.9h2c-0.1-0.6-0.2-1.2-0.5-1.7c-0.3-0.5-0.6-0.9-1.1-1.3c-0.4-0.3-1-0.6-1.5-0.8
			c-0.6-0.2-1.2-0.3-1.8-0.3c-0.9,0-1.7,0.2-2.3,0.5c-0.7,0.3-1.3,0.8-1.8,1.3c-0.5,0.6-0.8,1.2-1.1,1.9c-0.3,0.7-0.4,1.5-0.4,2.4
			c0,0.8,0.1,1.6,0.4,2.4c0.3,0.7,0.6,1.4,1.1,1.9c0.5,0.6,1.1,1,1.8,1.3c0.7,0.3,1.5,0.5,2.3,0.5c0.7,0,1.4-0.1,1.9-0.3
			c0.6-0.2,1.1-0.6,1.5-1c0.4-0.4,0.8-0.9,1-1.5c0.3-0.6,0.4-1.2,0.5-1.9h-2C243.7,93.1,243.7,93.5,243.5,93.9z M264.9,87
			c-0.5-0.6-1.1-1-1.8-1.3c-0.7-0.3-1.5-0.5-2.4-0.5c-0.9,0-1.7,0.2-2.3,0.5c-0.7,0.3-1.3,0.8-1.8,1.3c-0.5,0.6-0.8,1.2-1.1,1.9
			c-0.3,0.7-0.4,1.5-0.4,2.4c0,0.8,0.1,1.6,0.4,2.4c0.3,0.7,0.6,1.4,1.1,1.9c0.5,0.6,1.1,1,1.8,1.3c0.7,0.3,1.5,0.5,2.3,0.5
			c0.9,0,1.7-0.2,2.4-0.5c0.7-0.3,1.3-0.8,1.8-1.3c0.5-0.6,0.8-1.2,1.1-1.9c0.3-0.7,0.4-1.5,0.4-2.4c0-0.8-0.1-1.6-0.4-2.4
			C265.8,88.2,265.4,87.6,264.9,87z M264.2,93c-0.1,0.5-0.3,1-0.6,1.4c-0.3,0.4-0.7,0.8-1.1,1c-0.5,0.3-1,0.4-1.6,0.4
			c-0.6,0-1.2-0.1-1.6-0.4c-0.5-0.3-0.8-0.6-1.1-1c-0.3-0.4-0.5-0.9-0.6-1.4c-0.1-0.5-0.2-1.1-0.2-1.6c0-0.6,0.1-1.1,0.2-1.6
			c0.1-0.5,0.3-1,0.6-1.4c0.3-0.4,0.7-0.8,1.1-1c0.5-0.3,1-0.4,1.6-0.4c0.6,0,1.2,0.1,1.6,0.4c0.5,0.3,0.8,0.6,1.1,1
			c0.3,0.4,0.5,0.9,0.6,1.4c0.1,0.5,0.2,1.1,0.2,1.6C264.4,91.9,264.3,92.4,264.2,93z M282.6,94.6L282.6,94.6l-3.3-9.2h-2.9v11.7
			h1.9v-9h0l3.2,9h1.7l3.2-9h0v9h1.9V85.5h-2.8L282.6,94.6z M307.6,86.7c-0.3-0.4-0.7-0.7-1.2-0.9c-0.5-0.2-1.2-0.4-2-0.4h-5.2v11.7
			h2v-4.5h3.1c0.8,0,1.5-0.1,2-0.3c0.5-0.2,0.9-0.5,1.2-0.9c0.3-0.4,0.5-0.8,0.6-1.2c0.1-0.4,0.2-0.8,0.2-1.2c0-0.4-0.1-0.8-0.2-1.2
			C308.1,87.5,307.9,87.1,307.6,86.7z M306.1,90c-0.1,0.2-0.3,0.4-0.5,0.6c-0.2,0.2-0.4,0.3-0.7,0.3c-0.2,0.1-0.5,0.1-0.7,0.1h-3
			v-3.9h3c0.3,0,0.5,0,0.8,0.1c0.2,0.1,0.5,0.2,0.6,0.3c0.2,0.2,0.3,0.3,0.4,0.6c0.1,0.3,0.2,0.6,0.2,0.9
			C306.3,89.5,306.2,89.8,306.1,90z M325.7,92.3c0,0.4,0,0.8-0.1,1.2c0,0.4-0.1,0.8-0.3,1.1c-0.2,0.3-0.5,0.6-0.8,0.8
			c-0.4,0.2-0.9,0.3-1.5,0.3c-0.7,0-1.2-0.1-1.5-0.3c-0.4-0.2-0.6-0.5-0.8-0.8c-0.2-0.3-0.3-0.7-0.3-1.1c0-0.4-0.1-0.8-0.1-1.2v-6.8
			h-2V93c0,0.8,0.1,1.4,0.3,2c0.2,0.6,0.6,1,1,1.4c0.4,0.4,0.9,0.7,1.5,0.8c0.6,0.2,1.2,0.3,2,0.3c0.7,0,1.4-0.1,2-0.3
			c0.6-0.2,1.1-0.5,1.5-0.8c0.4-0.4,0.7-0.8,1-1.4c0.2-0.6,0.3-1.2,0.3-2v-7.5h-2V92.3z M337.2,87.3h3.7v9.9h2v-9.9h3.7v-1.8h-9.5
			V87.3z M358.2,92h5.9v-1.7h-5.9v-3.1h6.4v-1.8h-8.4v11.7h8.5v-1.8h-6.5V92z M384.1,96c-0.1-0.6-0.2-1.2-0.2-1.9
			c0-0.5-0.1-0.8-0.2-1.1c-0.1-0.3-0.3-0.6-0.4-0.7c-0.2-0.2-0.4-0.3-0.6-0.4c-0.2-0.1-0.4-0.1-0.6-0.2v0c0.1,0,0.3-0.1,0.5-0.2
			c0.2-0.1,0.4-0.3,0.7-0.5c0.2-0.2,0.4-0.5,0.6-0.9c0.2-0.4,0.2-0.8,0.2-1.4c0-1-0.3-1.8-1-2.3c-0.6-0.6-1.6-0.8-2.9-0.8h-5.6v11.7
			h2v-4.8h3c0.5,0,0.9,0.1,1.2,0.2c0.3,0.1,0.5,0.3,0.7,0.6c0.2,0.3,0.3,0.6,0.4,1c0.1,0.4,0.1,0.8,0.1,1.4c0,0.3,0,0.6,0,0.9
			c0,0.3,0.1,0.6,0.3,0.8h2.2C384.4,96.9,384.2,96.5,384.1,96z M381.6,90.3c-0.3,0.3-0.8,0.5-1.5,0.5h-3.4v-3.6h3.3
			c0.3,0,0.5,0,0.8,0.1c0.2,0,0.5,0.1,0.7,0.3c0.2,0.1,0.3,0.3,0.5,0.5c0.1,0.2,0.2,0.5,0.2,0.9C382.1,89.6,381.9,90,381.6,90.3z"/>
	</g>
</g>
</svg>
